<svg width="42" height="42" viewBox="0 0 42 42" fill="none" xmlns="http://www.w3.org/2000/svg">
<path fill-rule="evenodd" clip-rule="evenodd" d="M41.382 20.8212C41.382 32.1369 32.2088 41.3101 20.8931 41.3101C9.57736 41.3101 0.404175 32.1369 0.404175 20.8212C0.404175 9.50546 9.57736 0.332275 20.8931 0.332275C32.2088 0.332275 41.382 9.50546 41.382 20.8212ZM18.1628 34.174C18.1628 36.1732 15.9986 37.4227 14.2673 36.4231L11.5079 34.83C9.77657 33.8304 9.77657 31.3314 11.5079 30.3318L14.2673 28.7387C15.9986 27.7391 18.1628 28.9886 18.1628 30.9878V34.174ZM28.1178 5.28347C26.3865 4.28387 24.2223 5.53337 24.2223 7.53257L24.2223 10.7188C24.2223 12.718 26.3865 13.9675 28.1178 12.9679L30.8772 11.3748C32.6085 10.3752 32.6085 7.87618 30.8772 6.87658L28.1178 5.28347ZM13.6683 5.34187C15.3996 4.34228 17.5638 5.59177 17.5638 7.59097V10.7772C17.5638 12.7764 15.3996 14.0259 13.6683 13.0263L10.9089 11.4332C9.17759 10.4336 9.17759 7.93458 10.9089 6.93498L13.6683 5.34187ZM30.2782 35.0694C32.0096 34.0698 32.0096 31.5708 30.2782 30.5712L27.5189 28.9781C25.7875 27.9785 23.6233 29.228 23.6233 31.2272L23.6233 34.4134C23.6233 36.4126 25.7875 37.6621 27.5189 36.6625L30.2782 35.0694ZM10.5759 18.7597C12.3072 19.7593 12.3072 22.2582 10.5759 23.2578L7.81654 24.851C6.08518 25.8506 3.92099 24.6011 3.92099 22.6019L3.92099 19.4156C3.92099 17.4164 6.08518 16.1669 7.81654 17.1665L10.5759 18.7597ZM37.8651 19.4156C37.8651 17.4164 35.7009 16.1669 33.9696 17.1665L31.2102 18.7597C29.4789 19.7593 29.4789 22.2582 31.2103 23.2578L33.9696 24.851C35.701 25.8505 37.8651 24.6011 37.8651 22.6019V19.4156Z" fill="#FFB834"/>
<path d="M25.6936 19.8652C26.4604 20.2719 26.4604 21.3704 25.6936 21.7771L19.1807 25.2315C18.46 25.6137 17.5915 25.0913 17.5915 24.2755V17.3668C17.5915 16.551 18.46 16.0286 19.1807 16.4108L25.6936 19.8652Z" fill="#2A2D35"/>
</svg>
