<svg width="31" height="27" viewBox="0 0 31 27" fill="none" xmlns="http://www.w3.org/2000/svg">
<path d="M0.0828412 8.52323C0.0828412 8.54547 0.0826668 8.50104 0.0828412 8.52323C0.0828412 3.90587 3.82595 0.0229492 8.4433 0.0229492C11.2292 0.0229492 13.6968 1.38557 15.2161 3.48068C16.7353 1.38557 19.203 0.0229492 21.9889 0.0229492C26.6062 0.0229492 30.3493 3.90587 30.3493 8.52323C30.3495 8.50104 30.3493 8.54547 30.3493 8.52323C30.3493 8.4987 30.3495 8.5475 30.3493 8.52323C30.3493 18.7624 18.5124 26.9413 15.2161 26.9413C11.6201 26.9413 0.0828412 18.7624 0.0828412 8.52323C0.0826668 8.5475 0.0828412 8.4987 0.0828412 8.52323Z" fill="#717171"/>
</svg>
