<svg width="10" height="10" viewBox="0 0 10 10" fill="none" xmlns="http://www.w3.org/2000/svg">
<path fill-rule="evenodd" clip-rule="evenodd" d="M4.70922 1.9342C3.03182 1.9342 1.67203 3.294 1.67203 4.9714C1.67203 6.6488 3.03182 8.0086 4.70922 8.0086C6.38662 8.0086 7.74642 6.6488 7.74642 4.9714C7.74642 3.294 6.38662 1.9342 4.70922 1.9342ZM0.536591 4.9714C0.536591 2.66692 2.40474 0.798767 4.70922 0.798767C7.0137 0.798767 8.88185 2.66692 8.88185 4.9714C8.88185 5.86942 8.59817 6.70119 8.11552 7.38197L8.86153 8.12798C9.08324 8.34969 9.08324 8.70914 8.86153 8.93085V8.93085C8.63982 9.15256 8.28036 9.15256 8.05865 8.93085L7.339 8.21119C6.62132 8.79445 5.7061 9.14403 4.70922 9.14403C2.40474 9.14403 0.536591 7.27588 0.536591 4.9714Z" fill="#717171"/>
</svg>
